# xmcd
#
# Track frame offsets: 
#        150
#        9955
#        40662
#        70662
#        101475
#        142352
#        167622
#        199170
#        228277
#        270722
#
# Disc length: 4389 seconds
#
# Revision: 0
# Processed by: cddbd v1.4PL0 Copyright (c) Steve Scherf et al.
# Submitted via: ExactAudioCopy v0.90a11
#
DISCID=8111230a
DTITLE=Eric Clapton - play with fire [CD 1)
DYEAR=1900
DGENRE=
TTITLE0=Intro
TTITLE1=Pretending
TTITLE2=No Alibis
TTITLE3=Running on faith
TTITLE4=I shot the sheriff
TTITLE5=White room
TTITLE6=Can't find my way home
TTITLE7=Bad love
TTITLE8=Before you accuse me
TTITLE9=Old love
EXTD=Recorded live at the Royal Albert Hall, February 17, 1991\nLimite
EXTD=d Edition: 1000 pc.
EXTT0=
EXTT1=
EXTT2=
EXTT3=
EXTT4=
EXTT5=
EXTT6=
EXTT7=
EXTT8=
EXTT9=
PLAYORDER=
